<svg xmlns="http://www.w3.org/2000/svg" viewBox="0 0 887 822" width="887" height="822">
	<defs>
		<linearGradient id="grd1" gradientUnits="userSpaceOnUse"  x1="199.5" y1="0" x2="199.5" y2="399">
			<stop offset="0" stop-color="#037bff"  />
			<stop offset="1" stop-color="#644eee"  />
		</linearGradient>
		<linearGradient id="grd2" gradientUnits="userSpaceOnUse"  x1="626.5" y1="301" x2="626.5" y2="822">
			<stop offset="0" stop-color="#037bff"  />
			<stop offset="1" stop-color="#644eee"  />
		</linearGradient>
		<linearGradient id="grd3" gradientUnits="userSpaceOnUse"  x1="361.154" y1="121.201" x2="361.154" y2="133.339">
			<stop offset="0" stop-color="#f3f3f3"  />
			<stop offset="1" stop-color="#ffffff"  />
		</linearGradient>
		<linearGradient id="grd4" gradientUnits="userSpaceOnUse"  x1="361.154" y1="122.01" x2="361.154" y2="132.53">
			<stop offset="0" stop-color="#ffffff"  />
			<stop offset="1" stop-color="#f3f3f3"  />
		</linearGradient>
	</defs>
	<style>
		tspan { white-space:pre }
		.shp0 { fill: url(#grd1) } 
		.shp1 { fill: url(#grd2) } 
		.shp2 { fill: #ffffff } 
		.shp3 { fill: url(#grd3) } 
		.shp4 { fill: url(#grd4) } 
		.shp5 { fill: #f3f3f3 } 
		.shp6 { fill: #f3f3f3;stroke: #f9f8f8 } 
		.shp7 { fill: #f7faff } 
		.shp8 { fill: #e7e5ef } 
		.shp9 { fill: #ff6e14 } 
		.shp10 { fill: #000000 } 
	</style>
	<g id="Group_283">
		<path id="Ellipse_28" class="shp0" d="M199.5 399C309.82 399 399 309.82 399 199.5C399 89.18 309.82 0 199.5 0C89.18 0 0 89.18 0 199.5C0 309.82 89.18 399 199.5 399Z" />
		<path id="Ellipse_29" class="shp1" d="M626.5 822C770.56 822 887 705.56 887 561.5C887 417.44 770.56 301 626.5 301C482.44 301 366 417.44 366 561.5C366 705.56 482.44 822 626.5 822Z" />
		<g id="iPhone_X_-_Light">
			<g id="Layer">
				<path id="Case-2" class="shp2" d="M527.44 100.97L277.4 100.97C251.92 100.97 231.27 120.17 231.27 143.85L231.27 705.11C231.27 728.8 251.92 748 277.39 748L527.44 748C552.92 748 573.57 728.8 573.57 705.12L573.57 143.85C573.57 120.17 552.92 100.97 527.44 100.97Z" />
			</g>
			<g id="Button">
				<g id="Group_39">
					<path id="Rectangle_21" class="shp2" d="M232.08 250.01L230.04 250.01C229.78 250.01 229.52 250.07 229.27 250.17C229.03 250.27 228.81 250.41 228.62 250.6C228.44 250.79 228.29 251.01 228.19 251.25C228.09 251.49 228.04 251.75 228.04 252.01L228.04 325.7C228.04 325.96 228.09 326.22 228.19 326.46C228.29 326.71 228.44 326.93 228.62 327.11C228.81 327.3 229.03 327.45 229.27 327.55C229.52 327.65 229.78 327.7 230.04 327.7L232.08 327.7L232.08 250.01Z" />
					<path id="Rectangle_101" class="shp2" d="M232.08 250.01L230.04 250.01C229.78 250.01 229.52 250.07 229.27 250.17C229.03 250.27 228.81 250.41 228.62 250.6C228.44 250.79 228.29 251.01 228.19 251.25C228.09 251.49 228.04 251.75 228.04 252.01L228.04 325.7C228.04 325.96 228.09 326.22 228.19 326.46C228.29 326.71 228.44 326.93 228.62 327.11C228.81 327.3 229.03 327.45 229.27 327.55C229.52 327.65 229.78 327.7 230.04 327.7L232.08 327.7L232.08 250.01Z" />
				</g>
			</g>
			<g id="Button-2">
				<path id="Rectangle_28" class="shp2" d="M574 235.63L571.95 235.63L571.95 284.18L574 284.18C574.26 284.18 574.52 284.13 574.77 284.03C575.01 283.93 575.23 283.78 575.41 283.6C575.6 283.41 575.75 283.19 575.85 282.95C575.95 282.7 576 282.44 576 282.18L576 237.63C576 237.37 575.95 237.11 575.85 236.86C575.75 236.62 575.6 236.4 575.41 236.21C575.23 236.03 575.01 235.88 574.77 235.78C574.52 235.68 574.26 235.63 574 235.63L574 235.63Z" />
				<path id="Rectangle_103" class="shp2" d="M571.95 284.18L574 284.18C574.26 284.18 574.52 284.13 574.77 284.03C575.01 283.93 575.23 283.78 575.41 283.6C575.6 283.41 575.75 283.19 575.85 282.95C575.95 282.7 576 282.44 576 282.18L576 237.63C576 237.37 575.95 237.11 575.85 236.86C575.75 236.62 575.6 236.4 575.41 236.21C575.23 236.03 575.01 235.88 574.77 235.78C574.52 235.68 574.26 235.63 574 235.63L571.95 235.63L571.95 284.18Z" />
			</g>
			<g id="Button-3">
				<path id="Rectangle_29" class="shp2" d="M574 293.98L571.95 293.98L571.95 342.53L574 342.53C574.26 342.53 574.52 342.48 574.77 342.38C575.01 342.28 575.23 342.13 575.41 341.95C575.6 341.76 575.75 341.54 575.85 341.3C575.95 341.06 576 340.8 576 340.53L576 295.98C576 295.72 575.95 295.46 575.85 295.21C575.75 294.97 575.6 294.75 575.41 294.57C575.23 294.38 575.01 294.23 574.77 294.13C574.52 294.03 574.26 293.98 574 293.98L574 293.98Z" />
				<path id="Rectangle_104" class="shp2" d="M571.95 342.53L574 342.53C574.26 342.53 574.52 342.48 574.77 342.38C575.01 342.28 575.23 342.13 575.41 341.95C575.6 341.76 575.75 341.54 575.85 341.3C575.95 341.06 576 340.8 576 340.53L576 295.98C576 295.72 575.95 295.46 575.85 295.21C575.75 294.97 575.6 294.75 575.41 294.57C575.23 294.38 575.01 294.23 574.77 294.13C574.52 294.03 574.26 293.98 574 293.98L571.95 293.98L571.95 342.53Z" />
			</g>
			<g id="Button-4">
				<path id="Rectangle_31" class="shp2" d="M575 195.65L571.95 195.65L571.95 221.54L575 221.54C575.13 221.54 575.26 221.52 575.38 221.47C575.5 221.42 575.61 221.34 575.71 221.25C575.8 221.16 575.87 221.05 575.92 220.93C575.97 220.81 576 220.68 576 220.54L576 196.65C576 196.52 575.97 196.39 575.92 196.27C575.87 196.14 575.8 196.03 575.71 195.94C575.61 195.85 575.5 195.78 575.38 195.73C575.26 195.67 575.13 195.65 575 195.65L575 195.65Z" />
				<path id="Rectangle_149" class="shp2" d="M571.95 221.54L575 221.54C575.13 221.54 575.26 221.52 575.38 221.47C575.5 221.42 575.61 221.34 575.71 221.25C575.8 221.16 575.87 221.05 575.92 220.93C575.97 220.81 576 220.68 576 220.54L576 196.65C576 196.52 575.97 196.39 575.92 196.27C575.87 196.14 575.8 196.03 575.71 195.94C575.61 195.85 575.5 195.78 575.38 195.73C575.26 195.67 575.13 195.65 575 195.65L571.95 195.65L571.95 221.54Z" />
			</g>
			<g id="Camera">
				<path id="Ellipse_7" class="shp3" d="M361.15 133.34C364.51 133.34 367.22 130.63 367.22 127.27C367.22 123.91 364.51 121.2 361.15 121.2C357.8 121.2 355.08 123.91 355.08 127.27C355.08 130.63 357.8 133.34 361.15 133.34Z" />
				<path id="Ellipse_8" class="shp4" d="M361.15 132.53C364.06 132.53 366.41 130.18 366.41 127.27C366.41 124.36 364.06 122.01 361.15 122.01C358.25 122.01 355.89 124.36 355.89 127.27C355.89 130.18 358.25 132.53 361.15 132.53Z" />
				<path id="Ellipse_10" class="shp5" d="M361.15 130.91C363.17 130.91 364.79 129.28 364.79 127.27C364.79 125.26 363.17 123.63 361.15 123.63C359.14 123.63 357.51 125.26 357.51 127.27C357.51 129.28 359.14 130.91 361.15 130.91Z" />
				<path id="Ellipse_9" class="shp2" d="M361.15 125.25C361.83 125.25 362.37 124.89 362.37 124.44C362.37 123.99 361.83 123.63 361.15 123.63C360.48 123.63 359.94 123.99 359.94 124.44C359.94 124.89 360.48 125.25 361.15 125.25Z" />
			</g>
			<path id="Ear_Piece" class="shp6" d="M424.68 124.84L380.17 124.84C379.42 124.84 378.7 125.14 378.17 125.67C377.64 126.2 377.34 126.92 377.34 127.67C377.34 128.43 377.64 129.15 378.17 129.68C378.7 130.21 379.42 130.51 380.17 130.51L424.68 130.51C425.43 130.51 426.15 130.21 426.68 129.68C427.21 129.15 427.51 128.43 427.51 127.67C427.51 126.92 427.21 126.2 426.68 125.67C426.15 125.14 425.43 124.84 424.68 124.84L424.68 124.84Z" />
			<path id="Screen" class="shp7" d="M281.45 728.58L523.4 728.58C540.36 728.58 554.15 715.81 554.15 700.12L554.15 148.85C554.15 133.16 540.36 120.39 523.4 120.39L490.82 120.39C490.32 120.48 489.84 120.64 489.38 120.86C488.93 121.08 488.51 121.37 488.14 121.71C487.76 122.05 487.44 122.44 487.18 122.88C486.92 123.31 486.72 123.78 486.59 124.26C486.45 124.81 486.32 125.52 486.15 126.34C485.84 127.92 485.46 129.88 484.89 131.85C484.15 134.42 480.88 142.78 469.89 142.89C465.75 142.93 439.92 142.93 418.98 142.93C380.45 142.93 336.25 142.91 334.18 142.89C323.2 142.79 319.93 134.42 319.19 131.85C318.61 129.87 318.23 127.91 317.92 126.33C317.76 125.51 317.62 124.8 317.49 124.26C317.37 123.77 317.18 123.3 316.92 122.87C316.67 122.43 316.35 122.03 315.98 121.69C315.61 121.35 315.19 121.06 314.73 120.84C314.28 120.62 313.79 120.47 313.29 120.39L281.45 120.39C264.49 120.39 250.7 133.16 250.7 148.85L250.7 700.12C250.7 715.81 264.49 728.58 281.45 728.58Z" />
			<path id="Home" class="shp8" d="M452.59 714.82L351.44 714.82C350.91 714.82 350.39 715.04 350.01 715.42C349.63 715.79 349.42 716.31 349.42 716.85C349.42 717.38 349.63 717.9 350.01 718.28C350.39 718.66 350.91 718.87 351.44 718.87L452.59 718.87C453.13 718.87 453.65 718.66 454.03 718.28C454.4 717.9 454.62 717.38 454.62 716.85C454.62 716.31 454.4 715.79 454.03 715.42C453.65 715.04 453.13 714.82 452.59 714.82L452.59 714.82Z" />
		</g>
		<g id="Group_273">
			<g id="Layer">
				<path id="Rectangle_466-2" class="shp2" d="M453 331L349 331C321.35 331 299 353.35 299 381L299 485C299 512.65 321.35 535 349 535L453 535C480.65 535 503 512.65 503 485L503 381C503 353.35 480.65 331 453 331Z" />
			</g>
		</g>
	</g>
	<path id="Color Fill 1" class="shp9" d="M339 401.35L339 451.93C339 451.93 345.05 472.56 360.15 474.93C375.25 477.29 384.45 469.72 384.91 469.17C385.37 468.62 395.27 477.52 405.22 475.85C415.16 474.17 428.93 464.74 430.97 452.85C431.26 451.18 430.97 401.35 430.97 401.35L408.9 401.35L408.9 448.26C408.9 448.26 407.29 453.77 402.11 453.77C398.03 453.77 395.5 450.15 395.27 448.59C394.67 444.49 395.16 401.4 395.16 401.4L373.95 401.35L373.95 448.26C373.95 448.26 371.53 453.9 367.51 453.77C363.49 453.65 361.19 450.1 361.07 448.26C360.96 446.41 361.07 401.35 361.07 401.35L339 401.35Z" />
	<path id="Shape 1" class="shp10" d="M451.2 398.59C443.58 398.59 437.41 392.42 437.41 384.8C437.41 377.17 443.58 371 451.2 371C458.83 371 465 377.17 465 384.8C465 392.42 458.83 398.59 451.2 398.59ZM462.24 401.35L462.32 469.32C462.32 469.32 457.51 495.12 431.51 500.82C428.36 501.51 423.61 501.6 423.61 501.6L414.42 501.6L414.42 478.61L430.97 478.61C430.97 478.61 435.18 476.82 438.13 471.91C439.16 470.18 439.94 468.64 440.17 467.57C440.31 466.9 440.17 401.35 440.17 401.35L462.24 401.35Z" />
</svg>