<svg xmlns="http://www.w3.org/2000/svg" xmlns:xlink="http://www.w3.org/1999/xlink" width="1003" height="590.645" viewBox="0 0 1003 590.645">
  <defs>
    <style>
      .cls-1 {
        fill: #fff;
      }

      .cls-2 {
        fill: #fcfdff;
      }

      .cls-3 {
        fill: #e4e4e4;
      }

      .cls-4 {
        fill: #cecdc8;
      }

      .cls-5 {
        filter: url(#Path_373);
      }
    </style>
    <filter id="Path_373" x="0" y="0" width="1003" height="590.645" filterUnits="userSpaceOnUse">
      <feOffset input="SourceAlpha"/>
      <feGaussianBlur stdDeviation="15" result="blur"/>
      <feFlood flood-opacity="0.161"/>
      <feComposite operator="in" in2="blur"/>
      <feComposite in="SourceGraphic"/>
    </filter>
  </defs>
  <g id="Group_195" data-name="Group 195" transform="translate(-915 -3173.694)">
    <g class="cls-5" transform="matrix(1, 0, 0, 1, 915, 3173.69)">
      <path id="Path_373-2" data-name="Path 373" class="cls-1" d="M846.15,472.625V14.963C846.15,6.69,838.64,0,829.378,0H83.663C74.4,0,66.91,6.708,66.91,14.963V472.625H0v9.712c0,1.4,4.53,6.241,10.652,10.611h0c.7.5,1.43.989,2.175,1.475.04.036.1.054.141.09.7.45,1.409.9,2.134,1.313.121.072.242.126.362.2.664.378,1.329.755,1.993,1.1.2.108.423.2.624.306.6.288,1.188.593,1.792.845.3.126.6.234.906.36.524.216,1.027.432,1.55.611.4.144.785.252,1.188.36.423.126.846.27,1.289.378.5.126,1.007.216,1.51.306.3.054.624.144.946.18a18.115,18.115,0,0,0,2.376.18h853.8a15.281,15.281,0,0,0,2.376-.18c.3-.036.624-.126.946-.18.5-.09.987-.18,1.49-.306.423-.108.866-.252,1.289-.4.382-.126.785-.234,1.168-.36.523-.18,1.027-.4,1.55-.611.3-.126.6-.234.906-.36.6-.27,1.208-.557,1.792-.863.2-.108.423-.2.624-.306.685-.342,1.349-.719,1.993-1.1.121-.072.242-.126.342-.2.725-.432,1.43-.863,2.134-1.331.04-.036.081-.054.121-.09C907.362,489.692,913,483.829,913,482.283v-9.711H846.15Z" transform="translate(45 45)"/>
    </g>
    <g id="Group_194" data-name="Group 194" transform="translate(960 3220.322)">
      <path id="Path_369" data-name="Path 369" class="cls-2" d="M801.591,1.331,50.122,0c-9.334,0-16.9,6.679-16.9,14.9V470.576H818.473V14.9C818.473,6.679,810.925,1.331,801.591,1.331Z" transform="translate(30.521 0)"/>
      <g id="Group_193" data-name="Group 193" transform="translate(0 469.149)">
        <path id="Path_370" data-name="Path 370" class="cls-3" d="M602.061,262.8H0v10.361c0,2.878,16.908,19.571,29.59,19.571H883.164c12.681,0,29.59-16.693,29.59-19.571V262.8Z" transform="translate(0 -262.8)"/>
        <path id="Path_371" data-name="Path 371" class="cls-4" d="M5.29,274.1c5.723,4.356,12.837,8.251,18.963,8.251H878.781c6.126,0,13.24-3.9,18.963-8.251Z" transform="translate(4.86 -252.418)"/>
        <path id="Path_372" data-name="Path 372" class="cls-4" d="M459.631,274.466H309.393a8.422,8.422,0,0,1-8.423-8.423V262.8H468.035v3.243A8.393,8.393,0,0,1,459.631,274.466Z" transform="translate(72.03 -262.8)"/>
      </g>
    </g>
  </g>
</svg>
